<svg width="409" height="176" viewBox="0 0 409 176" fill="none" xmlns="http://www.w3.org/2000/svg">
<path fill-rule="evenodd" clip-rule="evenodd" d="M374.103 13.6029H35.5765C23.5861 13.6029 13.8661 23.323 13.8661 35.3133V141.257C13.8661 153.248 23.5861 162.968 35.5764 162.968H374.103C386.094 162.968 395.814 153.248 395.814 141.257V35.3133C395.814 23.323 386.094 13.6029 374.103 13.6029ZM35.5765 0.57666C16.392 0.57666 0.839844 16.1288 0.839844 35.3133V141.257C0.839844 160.442 16.3919 175.994 35.5764 175.994H374.103C393.288 175.994 408.84 160.442 408.84 141.257V35.3133C408.84 16.1288 393.288 0.57666 374.103 0.57666H35.5765Z" fill="#191919"/>
<path d="M326.305 64.4337H345.005V74.9921C349.33 67.3595 355.818 63.1616 362.051 63.1616H366.376V82.243H362.178C352.51 82.243 345.005 87.713 345.005 95.3455V129.565H326.305V64.4337Z" fill="#191919"/>
<path d="M256.635 96.7449C256.635 76.0097 269.101 63.1616 288.946 63.1616C308.536 63.1616 322.656 77.409 322.656 97.2537V101.452H275.843C276.988 110.992 281.822 116.081 289.836 116.081C296.706 116.081 300.903 113.028 301.921 107.685H321.766C319.222 123.077 308.027 130.583 289.709 130.583C269.356 130.583 256.635 117.607 256.635 96.7449ZM289.073 76.6458C282.204 76.6458 277.751 80.4621 276.225 89.1123H302.557C301.794 81.4797 296.578 76.6458 289.073 76.6458Z" fill="#191919"/>
<path d="M257.184 113.791V129.565H249.933C236.958 129.565 228.181 122.695 228.181 108.957V79.4441H217.877V64.4334H228.181V47.5145H246.88V64.4334H257.184V79.4441H246.88V106.412C246.88 111.882 248.916 113.791 252.732 113.791H257.184Z" fill="#191919"/>
<path d="M218.046 113.791V129.565H210.795C197.82 129.565 189.042 122.695 189.042 108.957V79.4441H178.739V64.4334H189.042V47.5145H207.742V64.4334H218.046V79.4441H207.742V106.412C207.742 111.882 209.778 113.791 213.594 113.791H218.046Z" fill="#191919"/>
<path d="M136.124 101.833C136.124 110.865 140.831 114.809 148.082 114.809C154.951 114.809 160.167 109.72 160.167 102.596V64.4337L178.739 64.4334L178.739 129.565H160.167V120.151C155.46 127.529 147.827 131.727 140.576 131.727C127.219 131.727 117.424 122.441 117.424 105.649V64.4337H136.124V101.833Z" fill="#191919"/>
<path d="M84.7699 44.8432C99.7806 44.8432 109.957 53.6207 109.957 66.3416C109.957 74.6102 105.505 81.7339 98.3813 85.0414C107.922 88.6032 113.901 96.9991 113.901 107.303C113.901 120.533 104.233 129.565 89.9855 129.565H43.2997V44.8432H84.7699ZM82.4801 60.7444H62.1266V78.6809H82.4801C87.4413 78.6809 90.8759 74.9918 90.8759 69.3946C90.8759 64.179 87.4413 60.7444 82.4801 60.7444ZM84.5155 94.5821H62.1266V113.791H85.1515C90.8759 113.791 94.8194 109.974 94.8194 104.377C94.8194 98.3983 90.7487 94.5821 84.5155 94.5821Z" fill="#191919"/>
</svg>
